<svg version="1.2" xmlns="http://www.w3.org/2000/svg" viewBox="0 0 1024 1024" width="1024" height="1024">
	<style>
		.s0 { fill: #000000 } 
	</style>
	<g id="l48zLhIjSgJfdHMCZy6Nddt">
		<g>
			<path id="psmU32QUB" class="s0" d="m472.65 975.6c-20.47-9.37-47.63-21.61-60.25-27.35-12.63-5.55-44.95-20.08-71.73-32.13-137.91-61.98-182.86-82.25-184.2-83.59-0.76-0.77-0.57-10.33 0.38-21.23 1.15-10.9 6.32-70.2 11.67-131.79 5.17-61.59 14.35-166.6 20.09-233.36 13.77-157.22 20.08-231.06 20.08-237.56v-5.36h56.43 56.42v27.74 27.73h-31.56-31.56v4.98c0 2.68-3.82 49.54-8.61 103.86-8.79 101.57-17.78 204.66-27.92 323.25-3.06 37.11-5.55 68.67-5.17 70.2 0.39 1.72 9.76-2.48 30.23-13.77 16.25-8.99 30.41-17.02 31.36-17.98 0.96-0.96 4.02-25.63 7.08-54.89 11.1-108.08 21.42-207.92 21.62-208.49 0.19 0 11.85 1.14 26.01 2.86 25.44 3.26 25.82 3.45 26.39 8.23 0.39 2.87-2.48 33.86-6.12 68.86-3.63 35.19-8.99 86.26-11.66 113.62-2.68 27.35-5.36 53.36-5.93 57.95l-0.96 8.23 12.05 5.35c6.7 2.87 46.29 20.66 88.18 39.41l76.13 34.04 10.9-4.78c47.05-20.66 164.11-73.07 165.26-74.02 1.34-1.15 0.38-13.01-15.49-170.43-5.17-52.03-10.14-101.18-10.71-109.22l-1.34-14.34 26.2-3.45c14.35-1.91 26.4-3.06 26.97-2.67 0.57 0.76 21.81 210.78 27.74 275.43 1.33 14.54 2.87 26.97 3.44 27.93 1.91 2.68 61.78 35.19 62.74 34.05 0.95-0.96-2.3-40.55-14.73-174.26-3.25-33.66-8.8-96.97-12.43-140.58-12.63-149.96-14.16-169.28-15.31-179.42l-1.14-9.95h-44-43.8v15.88c0 13.96 0.58 16.45 4.02 19.7 10.71 9.37 14.34 31.18 7.65 45.91-7.46 16.26-28.69 27.92-45.52 24.67-29.84-5.54-44.76-35.38-31.18-62.16 1.91-3.83 4.97-8.04 6.5-9.37 2.68-2.3 3.06-16.45 3.06-130.07v-127.39l27.74 27.73 27.73 27.74v55.85 56.04l69.43 0.39 69.25 0.57 2.29 31.56c2.49 32.14 14.35 172.91 17.79 211.36 1.15 11.67 4.97 55.85 8.61 98.51 3.63 42.65 8.03 91.24 9.56 108.07 1.53 16.83 5.36 60.25 8.61 96.59 3.06 36.34 6.12 69.43 6.69 73.83l1.15 7.85-14.92 6.69c-49.92 22.76-186.49 84.35-249.23 112.47-40.55 18.17-76.7 34.43-80.34 36.34-12.24 6.12-13 5.93-51.64-11.86zm85.5-63.88c25.06-11.29 58.53-26.21 74.21-33.28 15.88-7.08 53.18-23.91 83.21-37.3 66.95-29.84 62.35-27.55 59.1-30.61-1.53-1.34-16.06-9.94-32.51-18.93l-29.84-16.64-77.28 34.43c-42.46 18.74-87.79 39.02-100.8 44.95l-23.53 10.71-34.81-16.07c-19.13-8.8-64.27-29.07-100.23-44.95l-65.22-29.07-31.18 17.78c-17.02 9.76-30.99 18.75-30.99 19.71 0 1.14 14.16 8.22 31.37 15.87 32.52 14.54 47.63 21.42 130.84 58.72 27.35 12.44 58.72 26.59 69.81 31.37 11.09 4.98 21.81 9.95 23.91 11.29 2.1 1.15 4.78 2.29 6.12 2.29 1.34 0 22.76-9.18 47.82-20.27z"/>
			<path id="pY29vFECE" class="s0" d="m487.95 644.12c-37.11-8.41-67.9-38.25-77.27-74.78-4.02-15.31-4.02-41.13 0-54.52 10.9-37.3 41.5-65.41 80.14-73.45 16.83-3.44 25.25-3.44 42.08 0 48.01 10.14 83.01 53.18 83.21 101.76 0 34.81-17.6 67.52-46.29 86.27-23.53 15.11-54.9 20.84-81.87 14.72zm43.42-55.66c10.14-4.21 20.85-15.3 25.44-26.01 10.9-25.63-3.44-57.96-29.26-65.61-24.68-7.27-46.29 0.96-58.73 22.57-8.99 15.88-7.65 37.68 3.26 52.41 13.77 18.75 38.06 25.44 59.29 16.64z"/>
			<path id="pZMfiDphk" class="s0" d="m361.52 362.95c-9.95-3.25-22-13.96-25.82-23.14-3.45-8.04-3.45-25.83-0.19-33.86 1.53-3.44 4.97-8.8 7.65-12.05l5.16-6.12v-98.32-98.12l27.74-27.74 27.73-27.73v83.78 83.58h95.64 95.64l-0.77 27.36c-0.38 14.92-0.96 27.35-0.96 27.54-0.19 0.38-43.03 0.77-95.25 0.96l-95.26 0.57-0.57 14.54c-0.57 14.15-0.38 14.73 5.93 22.38 3.63 4.21 7.65 11.86 8.8 16.83 8.03 31.56-23.53 59.68-55.47 49.54z"/>
			<path id="pjqMCUXWJ" class="s0" d="m420.24 86.75c-0.57-0.96-0.57-13.39 0.19-27.74l1.15-26.01h91.62 91.43v27.73 27.74h-91.62c-52.41 0-92.2-0.77-92.77-1.72z"/>
		</g>
	</g>
</svg>